<svg class="icon {{ icon.class }}" viewBox="0 0 8 8" fill="none" xmlns="http://www.w3.org/2000/svg">
  <g clip-path="url(#clip0_1_1048)">
    <path d="M7.00241 1.66712L1.00241 1.66712C0.941666 1.66731 0.882122 1.68406 0.830188 1.71558C0.778255 1.74709 0.735899 1.79217 0.707682 1.84597C0.679463 1.89977 0.666452 1.96024 0.670046 2.02088C0.67364 2.08152 0.693705 2.14003 0.72808 2.19012L3.72808 6.52345C3.85241 6.70312 4.15175 6.70312 4.27641 6.52345L7.27641 2.19012C7.31114 2.14014 7.3315 2.0816 7.33529 2.02085C7.33908 1.96011 7.32615 1.89949 7.29791 1.84558C7.26966 1.79167 7.22719 1.74653 7.17509 1.71507C7.123 1.68361 7.06327 1.66702 7.00241 1.66712Z" fill="currentColor"/>
  </g>
  <defs>
    <clipPath id="clip0_1_1048">
      <rect width="8" height="8" fill="white" transform="translate(8 8) rotate(180)"/>
    </clipPath>
  </defs>
</svg>
