<svg class="icon {{ icon.class }}" viewBox="0 0 24 24" fill="none" xmlns="http://www.w3.org/2000/svg">
  <circle cx="12" cy="12" r="12" fill="#8655F0"/>
  <path d="M8.9625 7.80009C8.96234 8.11835 8.83576 8.42351 8.6106 8.64844C8.38545 8.87337 8.08016 8.99965 7.7619 8.99949C7.44364 8.99933 7.13848 8.87275 6.91355 8.64759C6.68862 8.42244 6.56234 8.11715 6.5625 7.79889C6.56266 7.48063 6.68924 7.17547 6.9144 6.95053C7.13955 6.7256 7.44484 6.59933 7.7631 6.59949C8.08136 6.59965 8.38652 6.72623 8.61145 6.95138C8.83638 7.17654 8.96266 7.48183 8.9625 7.80009ZM8.9985 9.88809H6.5985V17.4001H8.9985V9.88809ZM12.7905 9.88809H10.4025V17.4001H12.7665V13.4581C12.7665 11.2621 15.6285 11.0581 15.6285 13.4581V17.4001H17.9985V12.6421C17.9985 8.94009 13.7625 9.07809 12.7665 10.8961L12.7905 9.88809Z" fill="white"/>
</svg>
