<svg width="561" height="277" viewBox="0 0 561 277" fill="none" xmlns="http://www.w3.org/2000/svg">
<g opacity="0.3">
<path d="M197.328 97.0548C197.328 97.0548 235.197 97.0548 273.065 89.192C285.212 126.004 304.861 158.528 304.861 158.528C304.861 158.528 266.992 158.528 229.124 166.391C216.977 129.578 197.328 97.0548 197.328 97.0548Z" fill="white" fill-opacity="0.25"/>
<path d="M243.056 104.918C242.341 102.058 241.627 98.8417 240.912 95.9825C221.978 98.1269 206.259 98.4843 200.543 98.8417C205.187 106.705 220.192 134.225 230.552 164.604C242.341 162.102 254.131 160.315 264.491 159.243C255.202 141.73 248.057 123.503 243.056 104.918Z" fill="white" fill-opacity="0.25"/>
<path d="M316.993 190.057C316.993 190.057 313.064 206.855 313.064 224.726C295.558 226.513 279.125 232.231 279.125 232.231C279.125 232.231 283.055 215.433 283.055 197.563C300.56 195.776 316.993 190.057 316.993 190.057Z" fill="white" fill-opacity="0.25"/>
<path d="M309.132 209.715C310.561 209.715 311.99 209.715 313.419 209.715C314.133 201.137 315.562 193.989 316.277 191.13C312.347 192.559 298.414 196.491 283.767 198.278C283.767 203.639 283.41 209.357 282.695 214.004C291.269 211.502 300.201 210.072 309.132 209.715Z" fill="white" fill-opacity="0.25"/>
<path d="M377.475 95.1745C377.475 95.1745 373.58 117.208 374.647 139.633C352.257 143.296 331.531 151.312 331.531 151.312C331.531 151.312 335.426 129.278 334.36 106.853C356.75 103.19 377.475 95.1745 377.475 95.1745Z" fill="white" fill-opacity="0.25"/>
<path d="M368.711 120.889C370.525 120.724 372.339 120.558 374.153 120.393C374.629 109.44 375.955 100.098 376.41 96.6082C371.375 98.4756 353.769 104.447 335.35 107.677C335.569 114.695 335.447 121.815 335.019 127.907C345.877 124.311 357.141 122.086 368.711 120.889Z" fill="white" fill-opacity="0.25"/>
<path d="M54.4197 53.1722C54.4197 53.1722 65.8517 35.302 85.5005 38.1612C106.578 41.0205 114.08 71.7571 90.1447 92.8439C72.9967 108.212 52.9907 116.79 43.345 120.364C35.1282 113.931 19.4093 99.2771 7.62001 79.2626C-8.45623 51.3851 8.33451 24.9373 29.055 28.5114C49.061 32.8002 54.4197 53.1722 54.4197 53.1722Z" fill="white" fill-opacity="0.25"/>
<path d="M23.3402 98.5622C36.2012 84.2661 50.8484 71.0422 66.5674 59.6053C75.1414 53.5294 84.0727 47.811 93.3612 42.8074C91.2177 41.3777 88.7169 40.6629 86.2162 39.9481H85.8589C67.2819 37.4463 56.2072 54.2442 56.2072 54.2442L53.7064 56.7461L52.9919 53.5294C52.9919 53.172 47.6332 33.8723 29.4134 30.6556L28.6989 30.2982C20.8394 29.226 12.98 32.8001 7.97845 39.9481C2.26246 48.1684 -0.23829 62.8219 9.0502 78.905C13.6945 86.0531 18.3387 92.8438 23.3402 98.5622Z" fill="white" fill-opacity="0.25"/>
<path d="M162.131 197.516C162.131 197.516 167.293 175.498 187.407 171.242C208.973 166.816 227.014 195.31 211.024 225.474C199.556 247.08 183.348 262.736 174.974 269.831C164.962 266.026 144.399 256.949 125.949 240.742C100.491 218.085 107.691 185.12 129.388 181.827C149.634 178.703 162.131 197.516 162.131 197.516Z" fill="white" fill-opacity="0.25"/>
<path d="M147.448 254.681C155.141 235.428 164.781 217.094 176.369 199.681C182.663 190.534 189.321 181.345 196.474 173.245C193.844 172.786 191.259 172.705 188.354 173.043L187.991 173.086C168.923 176.838 164.035 198.059 164.035 198.059L163.342 201.582L161.493 198.355C161.449 197.978 149.448 180.254 130.291 183.251L129.928 183.294C121.621 184.644 115.382 191.108 113.125 200.167C110.638 210.401 112.848 226.206 127.634 239.398C133.508 245.597 140.704 250.496 147.448 254.681Z" fill="white" fill-opacity="0.25"/>
<path d="M186.155 40.9687C186.155 40.9687 171.425 33.6006 171.72 17.9804C172.015 1.18137 195.288 -7.36553 213.847 9.72827C227.104 21.8118 235.647 36.2531 239.477 43.6211C235.058 50.3997 225.336 64.2516 210.901 74.8615C190.869 89.8923 168.48 79.2823 169.658 62.4833C170.542 46.8631 186.155 40.9687 186.155 40.9687Z" fill="white" fill-opacity="0.25"/>
<path d="M223.866 61.3042C211.493 52.4626 200.004 42.4421 189.693 30.948C184.096 24.7589 179.088 18.275 174.08 11.7912C173.196 13.5595 172.607 15.6225 172.607 17.6856V17.9803C172.312 32.7163 186.158 39.7896 186.453 39.7896L188.809 40.9685L186.453 42.1474C186.158 42.1474 171.723 48.0418 170.544 62.4831V62.7778C170.25 69.2617 173.785 74.8614 179.677 78.1033C186.453 81.64 197.942 82.5241 209.725 73.6825C215.323 69.8511 220.036 65.7251 223.866 61.3042Z" fill="white" fill-opacity="0.25"/>
<path d="M539.052 228.03C539.052 228.03 545.001 222.148 552.257 225.191C559.988 228.063 560.087 240.37 549.022 246.201C541.118 250.366 532.842 251.981 529.018 252.542C526.555 249.398 521.935 242.462 519.201 234.048C515.755 222.132 524.203 213.48 532.105 216.828C538.561 219.888 539.052 228.03 539.052 228.03Z" fill="white" fill-opacity="0.25"/>
<path d="M523.207 242.275C529.513 238.144 535.988 234.49 542.957 231.464C546.917 229.781 550.724 228.421 554.701 227.537C553.885 226.755 553.24 226.449 552.271 225.99L551.948 225.837C545.338 223.1 539.542 228.659 539.542 228.659L538.76 229.475L538.573 228.2C538.573 228.2 538.406 220.211 531.796 217.474L531.473 217.321C528.568 215.944 525.389 216.811 522.721 219.106C519.899 221.724 517.45 226.892 519.674 233.878C520.37 236.581 521.712 239.59 523.207 242.275Z" fill="white" fill-opacity="0.25"/>
<path d="M434.209 69.8701C430.636 79.1625 429.207 83.8088 422.062 90.9568C431.708 92.3864 435.995 95.2457 444.212 100.964C457.073 109.542 467.076 99.1771 464.575 89.8846C463.146 84.1662 458.145 82.0218 454.929 81.3069C458.502 80.5921 464.932 79.8773 468.148 80.2347L465.647 72.7293C463.503 74.8737 457.787 77.7329 454.572 79.5199C456.716 77.0181 459.574 72.3719 457.43 67.0108C453.5 57.7183 439.568 55.5739 434.209 69.8701Z" fill="white" fill-opacity="0.25"/>
<path d="M464.219 89.8846C464.219 89.5272 464.219 89.5272 463.861 89.1698V88.8124C452.787 87.0253 441.712 83.8087 431.352 78.8051C429.565 83.0939 427.422 86.3105 423.492 90.5994C432.066 92.029 436.353 94.8882 443.855 99.8919L444.57 100.249C450.286 103.823 455.645 104.181 459.932 101.321C463.504 98.8196 465.29 94.1734 464.219 89.8846Z" fill="white" fill-opacity="0.25"/>
<path d="M517.053 201.852C521.34 195.418 523.483 192.202 529.914 187.913C522.769 185.054 520.268 181.837 514.909 176.476C506.693 167.541 497.404 173.617 497.404 181.122C497.404 185.768 500.977 188.27 503.12 189.342C500.262 188.985 495.261 188.628 493.117 187.913L493.474 193.989C495.618 192.916 500.619 191.487 503.12 190.772C501.334 192.202 498.119 195.418 498.833 199.707C499.905 207.57 510.265 211.859 517.053 201.852Z" fill="white" fill-opacity="0.25"/>
<path d="M498.117 181.122C498.117 181.48 498.117 181.48 498.117 181.837C498.117 181.837 498.117 181.837 498.117 182.194C506.334 185.768 513.836 190.057 520.981 195.776C523.125 192.916 525.268 190.772 529.198 188.27C522.767 185.411 520.267 182.552 515.265 177.548L514.908 177.191C511.335 173.259 507.048 172.187 503.476 173.617C499.903 174.689 498.117 177.906 498.117 181.122Z" fill="white" fill-opacity="0.25"/>
<path d="M409.875 186.126C428.095 197.92 437.741 203.996 449.53 222.224C457.389 202.209 465.606 194.346 481.325 179.336C505.618 155.747 488.47 129.299 467.392 130.014C454.531 130.371 447.386 140.379 444.528 146.454C444.886 138.592 445.957 124.295 448.101 117.862L430.596 119.649C434.168 125.725 437.741 139.306 439.527 147.169C435.24 141.808 426.666 133.231 413.805 135.375C393.442 138.592 381.295 167.541 409.875 186.126Z" fill="white" fill-opacity="0.25"/>
<path d="M467.393 131.443C467.036 131.443 466.321 131.443 465.964 131.443C465.607 131.443 465.607 131.443 465.25 131.443C455.961 154.675 443.457 176.476 427.738 196.491C435.598 202.567 442.028 208.643 448.816 219.007C456.318 201.137 464.535 193.274 478.468 179.335L479.897 177.906C490.614 167.541 493.83 155.747 489.543 145.382C486.327 136.805 477.039 131.086 467.393 131.443Z" fill="white" fill-opacity="0.25"/>
<path d="M355.218 227.942C355.932 230.444 357.361 232.588 359.147 234.375C354.86 231.874 349.502 231.159 344.5 232.946C335.212 236.162 330.21 245.812 333.068 255.105C336.283 264.04 346.286 269.044 355.575 265.827C360.576 264.04 364.506 260.466 366.292 255.82C365.935 258.321 366.292 260.823 367.007 263.325C370.222 272.26 380.225 277.264 389.514 274.047C398.802 270.831 403.804 261.181 400.946 251.888C398.088 244.383 390.943 239.736 383.44 240.094C389.871 239.022 404.161 236.162 410.949 237.235L405.947 222.224C400.946 226.87 388.085 233.661 382.011 236.52C388.085 232.231 391.3 224.011 388.799 216.505C385.584 207.57 375.581 202.567 366.292 205.783C357.361 209 352.36 219.007 355.218 227.942Z" fill="white" fill-opacity="0.25"/>
<path d="M400.947 256.892C388.086 254.032 375.94 249.744 364.151 244.025C357.72 240.809 351.647 237.235 345.931 233.661C345.574 233.661 345.216 233.661 345.216 234.018C336.642 236.877 331.641 246.527 334.499 255.105C337.714 263.682 347.36 268.329 355.934 265.469C360.578 264.04 364.151 260.466 365.937 255.82L367.723 256.177C367.366 258.679 367.723 260.823 368.438 263.325C371.653 271.903 380.941 276.549 389.873 273.69C396.303 270.83 400.947 264.04 400.947 256.892Z" fill="white" fill-opacity="0.25"/>
<path d="M356.371 53.1782C354.585 52.106 352.799 51.3912 351.012 51.0338C354.585 50.6764 358.157 48.8894 360.658 45.3154C364.945 39.2395 363.516 31.0192 357.8 26.7304C351.727 22.799 343.51 24.2286 339.223 29.947C336.722 33.1637 336.365 37.0951 337.08 41.0265C336.008 39.2395 334.936 37.8099 333.507 36.7377C327.434 32.8063 319.217 34.2359 314.93 39.9543C310.643 46.0302 312.072 54.2504 317.788 58.5393C322.79 61.7559 329.22 61.3985 333.864 57.8245C330.292 61.3985 322.79 69.2614 318.145 72.1206L328.148 79.2686C329.22 74.265 333.864 64.2577 336.365 59.9689C334.579 65.3299 336.365 71.7632 341.009 75.3372C347.083 79.2686 355.299 77.839 359.586 72.1206C363.873 66.0447 362.444 57.8245 356.371 53.1782Z" fill="white" fill-opacity="0.25"/>
<path d="M315.641 55.6801C324.572 51.7486 334.218 48.8894 343.863 47.1024C349.222 46.0302 354.224 45.6728 359.582 45.3154C359.582 44.958 359.94 44.958 359.94 44.6006C363.869 38.8821 362.798 31.0193 357.082 27.0878C351.366 23.1564 343.506 24.586 339.576 30.3044C337.433 33.1637 336.718 37.0951 337.433 40.6691L336.004 41.0265C334.932 39.5969 333.86 38.1673 332.431 37.0951C326.715 33.1637 318.856 34.5933 314.926 40.3117C312.068 45.3154 312.425 51.3912 315.641 55.6801Z" fill="white" fill-opacity="0.25"/>
<path d="M114.324 139.76C114.681 138.33 114.681 136.901 114.681 135.828C115.753 138.33 117.897 140.117 120.755 140.832C125.756 142.262 131.115 139.402 132.544 134.756C133.973 129.753 131.115 124.749 126.113 122.962C123.255 122.247 120.755 122.604 118.254 124.034C118.968 122.962 119.683 121.89 120.397 120.46C121.826 115.456 118.968 110.453 113.967 108.666C108.965 107.236 103.607 110.095 102.178 114.742C101.106 118.673 102.892 122.962 106.107 125.106C102.892 123.677 95.7471 120.46 93.2463 117.958L90.0311 126.893C93.6036 126.179 101.463 127.251 105.036 127.966C101.106 127.966 97.1761 130.467 95.7471 134.756C94.3181 139.76 97.1761 144.763 102.178 146.55C107.536 147.623 112.538 144.763 114.324 139.76Z" fill="white" fill-opacity="0.25"/>
<path d="M103.254 112.955C107.898 117.958 112.185 123.677 115.4 130.11C117.186 133.327 118.615 136.901 120.044 140.475H120.402C125.046 141.904 130.047 139.045 131.476 134.399C132.905 129.753 130.047 124.749 125.403 123.319C122.902 122.605 120.402 122.962 117.901 124.392L117.186 123.677C117.901 122.605 118.615 121.532 118.973 120.46C120.402 115.814 117.544 110.81 112.899 109.381C109.327 108.308 105.397 110.095 103.254 112.955Z" fill="white" fill-opacity="0.25"/>
<path d="M32.6209 170.043C32.2636 172.545 32.6209 175.404 33.3354 177.548C30.4774 173.26 26.1904 170.4 20.4744 169.328C10.8286 167.899 1.89738 174.689 0.111129 184.697C-0.96062 194.704 5.82713 203.639 15.8301 205.069C21.1889 205.783 26.5476 203.996 30.1201 200.78C28.6911 202.924 27.6194 205.426 27.2621 207.928C26.1904 217.935 32.9781 226.87 42.9811 228.3C52.9841 229.729 61.9153 222.939 63.7016 213.289C64.7733 205.068 60.1291 197.563 52.9841 194.346C59.4146 196.133 73.7046 200.422 79.7778 204.354L81.9213 188.271C75.1336 190.415 60.1291 190.415 53.3413 190.415C61.2008 189.343 67.6313 183.267 68.7031 175.404C69.7748 165.397 62.9871 156.462 52.9841 155.032C43.3383 153.245 34.4071 160.036 32.6209 170.043Z" fill="white" fill-opacity="0.25"/>
<path d="M512.941 32.8593C511.74 34.6089 510.94 36.893 510.675 38.7721C510.135 34.4828 507.99 30.7379 504.108 27.8064C497.414 23.1453 488.188 24.9349 483.114 31.8005C478.575 38.9318 480.326 48.1778 487.286 52.9717C491.035 55.5015 495.717 56.1488 499.594 55.0565C497.723 56.1388 495.986 57.6229 494.784 59.3725C490.246 66.5038 491.996 75.7498 498.957 80.5437C505.918 85.3376 515.144 83.5481 520.085 76.9513C523.956 71.1646 523.278 63.791 519.126 58.7149C523.277 62.4498 532.382 70.9886 535.465 76.2041L543.075 64.8997C537.189 63.9901 525.947 58.4127 520.861 55.8896C527.15 58.0043 534.236 55.8231 537.974 50.3053C542.513 43.174 540.763 33.928 533.802 29.1341C527.242 24.2041 518.015 25.9936 512.941 32.8593Z" fill="white" fill-opacity="0.25"/>
<path d="M61.2015 217.578C50.8413 209 41.5528 199.35 33.3361 188.628C29.0491 182.91 25.1193 176.834 21.5468 170.4C21.1896 170.4 20.8323 170.4 20.4751 170.4C11.1866 168.971 2.61259 175.404 0.826337 184.697C-0.245412 193.989 6.54233 202.567 15.4736 203.996C20.4751 204.711 25.4766 203.282 29.0491 200.065L30.4781 201.137C29.7636 203.282 28.6918 205.426 28.3346 207.928C27.2628 217.22 34.0506 225.798 42.9818 227.228C50.8413 227.942 57.9863 224.011 61.2015 217.578Z" fill="white" fill-opacity="0.25"/>
<path d="M516.98 79.2629C512.462 68.9341 509.148 58.1911 507.036 47.034C505.981 41.1189 505.327 35.0657 505.073 28.8744C504.807 28.742 504.54 28.6097 504.273 28.4773C497.873 23.954 489.054 25.6446 484.232 32.0136C479.943 38.6474 481.793 47.6525 487.926 52.0434C491.394 54.4375 495.666 55.209 499.541 54.099L500.206 55.4397C498.867 56.7975 497.262 58.0229 496.056 59.7834C491.767 66.4172 493.617 75.4223 499.75 79.8133C505.352 83.2663 512.164 82.9391 516.98 79.2629Z" fill="white" fill-opacity="0.25"/>
</g>
</svg>
