<svg width="1408" height="287" viewBox="0 0 1408 287" fill="none" xmlns="http://www.w3.org/2000/svg">
<mask id="mask0_1_511" style="mask-type:alpha" maskUnits="userSpaceOnUse" x="0" y="0" width="1408" height="287">
<rect width="1408" height="287" fill="#EAEBFD"/>
</mask>
<g mask="url(#mask0_1_511)">
<path d="M306.988 -3.22498C306.988 -3.22498 364.193 -3.22498 421.399 -15.1029C439.748 40.5073 469.43 89.6386 469.43 89.6386C469.43 89.6386 412.224 89.6386 355.019 101.517C336.67 45.9064 306.988 -3.22498 306.988 -3.22498Z" fill="white" fill-opacity="0.25"/>
<path d="M376.065 8.65293C374.985 4.33369 373.906 -0.52545 372.827 -4.84469C344.224 -1.60526 320.478 -1.06535 311.844 -0.525444C318.859 11.3525 341.526 52.9251 357.176 98.817C374.985 95.0377 392.795 92.3382 408.445 90.7185C394.414 64.2631 383.62 36.728 376.065 8.65293Z" fill="white" fill-opacity="0.25"/>
<path d="M488.858 128.512C488.858 128.512 482.921 153.887 482.921 180.883C456.477 183.582 431.652 192.221 431.652 192.221C431.652 192.221 437.589 166.845 437.589 139.85C464.033 137.15 488.858 128.512 488.858 128.512Z" fill="white" fill-opacity="0.25"/>
<path d="M476.983 158.207C479.141 158.207 481.3 158.207 483.459 158.207C484.538 145.249 486.697 134.451 487.776 130.132C481.84 132.291 460.793 138.23 438.666 140.93C438.666 149.028 438.126 157.667 437.047 164.685C449.999 160.906 463.491 158.746 476.983 158.207Z" fill="white" fill-opacity="0.25"/>
<path d="M893.612 135.531C893.612 135.531 910.341 146.329 929.23 153.347C924.373 172.784 923.833 192.76 923.833 192.76C923.833 192.76 907.103 181.962 888.215 174.944C893.072 154.967 893.612 135.531 893.612 135.531Z" fill="white" fill-opacity="0.25"/>
<path d="M911.424 151.188C911.963 149.568 912.503 147.948 913.043 146.329C904.408 142.009 897.392 137.69 894.694 136.07C894.694 140.93 893.614 157.127 889.297 173.324C895.233 175.483 900.63 178.183 905.487 180.343C906.566 171.164 908.185 160.906 911.424 151.188Z" fill="white" fill-opacity="0.25"/>
<path d="M573.044 19.9909C573.044 19.9909 557.933 50.2256 549.838 83.1598C515.839 78.8405 482.379 81.5401 482.379 81.5401C482.379 81.5401 497.49 51.3054 505.585 18.3712C539.584 22.6904 573.044 19.9909 573.044 19.9909Z" fill="white" fill-opacity="0.25"/>
<path d="M549.301 53.465C551.999 54.0049 554.698 54.5448 557.396 55.0847C562.793 39.4275 568.729 26.4698 570.888 21.6106C562.793 22.1505 534.73 23.2304 506.667 19.9909C503.968 30.2491 500.73 40.5073 497.492 49.1458C514.762 48.6059 532.031 50.2256 549.301 53.465Z" fill="white" fill-opacity="0.25"/>
<path d="M92.1993 -78.2717C92.1993 -78.2717 109.469 -105.267 139.151 -100.948C170.992 -96.6285 182.325 -50.1967 146.167 -18.3423C120.262 4.8736 90.0406 17.8313 75.4694 23.2304C63.0569 13.5121 39.3113 -8.62402 21.5021 -38.8587C-2.78324 -80.9713 22.5814 -120.924 53.8825 -115.525C84.1042 -109.046 92.1993 -78.2717 92.1993 -78.2717Z" fill="white" fill-opacity="0.25"/>
<path d="M250.787 125.7C250.787 125.7 253.908 93.5624 282.401 83.1329C312.98 72.1447 345.01 108.278 327.723 154.273C315.32 187.22 294.808 212.839 284.011 224.675C268.641 221.527 236.821 213.285 206.656 194.538C164.974 168.257 168.874 120.26 199.872 110.836C228.784 101.971 250.787 125.7 250.787 125.7Z" fill="white" fill-opacity="0.25"/>
<path d="M240.815 209.42C248.182 180.616 258.575 152.679 271.994 125.607C279.345 111.341 287.218 96.9343 296.031 83.9528C292.103 83.8875 288.314 84.3437 284.144 85.4611L283.622 85.6008C256.553 95.0898 253.673 126.045 253.673 126.045L253.367 131.157L250.024 127.022C249.885 126.501 228.823 104.197 201.475 112.643L200.953 112.783C189.103 116.517 181.295 126.993 179.817 140.245C178.238 155.201 184.628 176.965 208.844 192.275C218.657 199.707 230.137 205.015 240.815 209.42Z" fill="white" fill-opacity="0.25"/>
<path d="M274.069 -83.6708C274.069 -83.6708 247.085 -97.1684 247.625 -125.783C248.165 -156.558 290.799 -172.215 324.798 -140.901C349.083 -118.765 364.734 -92.3093 371.75 -78.8117C363.655 -66.3938 345.845 -41.0183 319.401 -21.5817C282.704 5.95342 241.688 -13.4832 243.847 -44.2577C245.466 -72.8727 274.069 -83.6708 274.069 -83.6708Z" fill="white" fill-opacity="0.25"/>
<path d="M824.307 185.874C824.307 185.874 833.295 176.989 844.255 181.585C855.934 185.925 856.083 204.516 839.368 213.324C827.429 219.616 814.926 222.056 809.15 222.903C805.429 218.153 798.449 207.676 794.32 194.966C789.114 176.965 801.876 163.894 813.812 168.952C823.566 173.574 824.307 185.874 824.307 185.874Z" fill="white" fill-opacity="0.25"/>
<path d="M800.372 207.394C809.898 201.153 819.681 195.632 830.208 191.061C836.19 188.519 841.941 186.464 847.949 185.129C846.717 183.947 845.741 183.485 844.278 182.792L843.791 182.561C833.806 178.427 825.049 186.824 825.049 186.824L823.868 188.057L823.586 186.131C823.586 186.131 823.333 174.062 813.348 169.928L812.86 169.697C808.471 167.617 803.67 168.927 799.638 172.394C795.376 176.348 791.677 184.155 795.036 194.708C796.088 198.791 798.115 203.336 800.372 207.394Z" fill="white" fill-opacity="0.25"/>
<path d="M699.869 -46.4174C694.472 -32.3798 692.313 -25.3611 681.52 -14.563C696.091 -12.4034 702.567 -8.08413 714.979 0.554352C734.408 13.5121 749.519 -2.14516 745.741 -16.1827C743.582 -24.8212 736.027 -28.0606 731.17 -29.1404C736.566 -30.2202 746.28 -31.3 751.138 -30.7601L747.36 -42.0981C744.122 -38.8587 735.487 -34.5395 730.63 -31.8399C733.868 -35.6193 738.185 -42.638 734.947 -50.7366C729.011 -64.7741 707.964 -68.0136 699.869 -46.4174Z" fill="white" fill-opacity="0.25"/>
<path d="M745.203 -16.1827C745.203 -16.7226 745.203 -16.7226 744.663 -17.2625V-17.8024C727.933 -20.5019 711.203 -25.3611 695.553 -32.9197C692.854 -26.4409 689.616 -21.5817 683.68 -15.1029C696.632 -12.9433 703.108 -8.62403 714.441 -1.06536L715.521 -0.525452C724.155 4.8736 732.25 5.4135 738.726 1.09426C744.123 -2.68508 746.822 -9.70383 745.203 -16.1827Z" fill="white" fill-opacity="0.25"/>
<path d="M791.072 146.329C797.548 136.61 800.786 131.751 810.5 125.272C799.707 120.953 795.929 116.094 787.834 107.995C775.422 94.4978 761.39 103.676 761.39 115.014C761.39 122.033 766.787 125.812 770.025 127.432C765.708 126.892 758.152 126.352 754.914 125.272L755.454 134.451C758.692 132.831 766.247 130.671 770.025 129.592C767.327 131.751 762.47 136.61 763.549 143.089C765.168 154.967 780.818 161.446 791.072 146.329Z" fill="white" fill-opacity="0.25"/>
<path d="M762.469 115.014C762.469 115.554 762.469 115.554 762.469 116.094C762.469 116.094 762.469 116.094 762.469 116.634C774.881 122.033 786.215 128.512 797.008 137.15C800.246 132.831 803.484 129.592 809.421 125.812C799.706 121.493 795.929 117.174 788.373 109.615L787.834 109.075C782.437 103.136 775.961 101.517 770.564 103.676C765.167 105.296 762.469 110.155 762.469 115.014Z" fill="white" fill-opacity="0.25"/>
<path d="M629.175 122.573C656.699 140.39 671.27 149.568 689.079 177.103C700.952 146.869 713.365 134.991 737.11 112.315C773.808 76.6809 747.904 36.728 716.063 37.8078C696.635 38.3477 685.841 53.465 681.524 62.6434C682.063 50.7655 683.683 29.1693 686.921 19.451L660.477 22.1505C665.873 31.3289 671.27 51.8453 673.968 63.7232C667.492 55.6246 654.54 42.6669 635.112 45.9064C604.351 50.7655 586.002 94.4978 629.175 122.573Z" fill="white" fill-opacity="0.25"/>
<path d="M716.064 39.9674C715.524 39.9674 714.445 39.9674 713.905 39.9674C713.366 39.9674 713.366 39.9674 712.826 39.9674C698.794 75.0612 679.906 107.995 656.16 138.23C668.033 147.408 677.747 156.587 688.001 172.244C699.334 145.249 711.747 133.371 732.794 112.315L734.953 110.155C751.143 94.4978 756 76.6809 749.524 61.0237C744.667 48.066 730.635 39.4275 716.064 39.9674Z" fill="white" fill-opacity="0.25"/>
<path d="M546.602 185.742C547.681 189.521 549.84 192.76 552.538 195.46C546.062 191.681 537.967 190.601 530.411 193.3C516.38 198.16 508.824 212.737 513.142 226.774C517.999 240.272 533.11 247.831 547.141 242.972C554.697 240.272 560.633 234.873 563.331 227.854C562.792 231.634 563.331 235.413 564.411 239.192C569.268 252.69 584.379 260.249 598.41 255.389C612.442 250.53 619.997 235.953 615.68 221.915C611.362 210.577 600.569 203.559 589.236 204.098C598.95 202.479 620.537 198.159 630.791 199.779L623.235 177.103C615.68 184.122 596.252 194.38 587.077 198.699C596.252 192.221 601.109 179.803 597.331 168.465C592.474 154.967 577.363 147.408 563.331 152.268C549.84 157.127 542.284 172.244 546.602 185.742Z" fill="white" fill-opacity="0.25"/>
<path d="M615.681 229.474C596.253 225.155 577.904 218.676 560.095 210.037C550.38 205.178 541.206 199.779 532.571 194.38C532.032 194.38 531.492 194.38 531.492 194.92C518.54 199.239 510.984 213.817 515.302 226.774C520.159 239.732 534.73 246.751 547.682 242.432C554.698 240.272 560.095 234.873 562.793 227.854L565.491 228.394C564.952 232.174 565.491 235.413 566.571 239.192C571.428 252.15 585.459 259.169 598.951 254.85C608.665 250.53 615.681 240.272 615.681 229.474Z" fill="white" fill-opacity="0.25"/>
<path d="M182.698 52.5305C183.237 50.3709 183.237 48.2113 183.237 46.5916C184.856 50.3709 188.095 53.0705 192.412 54.1503C199.967 56.3099 208.062 51.9906 210.221 44.9719C212.38 37.4132 208.062 29.8545 200.507 27.155C196.19 26.0752 192.412 26.6151 188.634 28.7747C189.714 27.155 190.793 25.5353 191.872 23.3757C194.031 15.817 189.714 8.25834 182.158 5.55882C174.603 3.3992 166.508 7.71844 164.349 14.7372C162.73 20.6762 165.428 27.155 170.285 30.3944C165.428 28.2348 154.635 23.3757 150.857 19.5963L146 33.094C151.397 32.0142 163.27 33.6339 168.666 34.7137C162.73 34.7137 156.793 38.493 154.635 44.9719C152.476 52.5305 156.793 60.0892 164.349 62.7887C172.444 64.4084 179.999 60.0892 182.698 52.5305Z" fill="white" fill-opacity="0.25"/>
<path d="M165.969 12.0377C172.985 19.5964 179.461 28.2348 184.318 37.9531C187.016 42.8123 189.175 48.2113 191.333 53.6104H191.873C198.889 55.77 206.444 51.4507 208.603 44.432C210.762 37.4132 206.444 29.8545 199.429 27.6949C195.651 26.6151 191.873 27.155 188.095 29.3146L187.016 28.2348C188.095 26.6151 189.175 24.9954 189.714 23.3757C191.873 16.3569 187.556 8.79826 180.54 6.63864C175.143 5.01892 169.207 7.71845 165.969 12.0377Z" fill="white" fill-opacity="0.25"/>
<path d="M59.2782 98.2771C58.7385 102.056 59.2782 106.376 60.3575 109.615C56.0401 103.136 49.564 98.817 40.9293 97.1973C26.3581 95.0377 12.8662 105.296 10.1679 120.413C8.54886 135.531 18.8027 149.028 33.9135 151.188C42.0086 152.268 50.1037 149.568 55.5004 144.709C53.3417 147.948 51.7227 151.728 51.1831 155.507C49.564 170.624 59.8178 184.122 74.9287 186.282C90.0395 188.441 103.531 178.183 106.23 163.606C107.849 151.188 100.833 139.85 90.0395 134.991C99.7537 137.69 121.341 144.169 130.515 150.108L133.753 125.812C123.499 129.052 100.833 129.052 90.5792 129.052C102.452 127.432 112.166 118.254 113.785 106.376C115.404 91.2583 105.15 77.7607 90.0395 75.6011C75.4684 72.9016 61.9765 83.1598 59.2782 98.2771Z" fill="white" fill-opacity="0.25"/>
<path d="M102.451 170.084C86.8008 157.127 72.7693 142.549 60.3568 126.352C53.8808 117.714 47.9443 108.535 42.5476 98.817C42.0079 98.817 41.4683 98.817 40.9286 98.817C26.8971 96.6574 13.9449 106.376 11.2466 120.413C9.62753 134.451 19.8813 147.408 33.3732 149.568C40.9286 150.648 48.484 148.488 53.8808 143.629L56.0394 145.249C54.9601 148.488 53.3411 151.728 52.8014 155.507C51.1824 169.545 61.4362 182.502 74.928 184.662C86.8008 185.742 97.5943 179.803 102.451 170.084Z" fill="white" fill-opacity="0.25"/>
<path d="M1145.64 5.95337C1145.64 5.95337 1120.82 0.554317 1094.37 0.554317C1091.67 -25.3611 1083.04 -49.6568 1083.04 -49.6568C1083.04 -49.6568 1107.86 -44.2578 1134.31 -44.2578C1137.55 -18.3423 1145.64 5.95337 1145.64 5.95337Z" fill="white" fill-opacity="0.25"/>
<path d="M1117.04 -5.92453C1117.04 -3.76491 1117.04 -1.6053 1117.04 0.554325C1129.99 1.63413 1140.25 3.79376 1144.02 4.33366C1141.86 -1.60529 1135.93 -22.1217 1133.23 -43.7179C1125.13 -43.7179 1117.04 -44.2578 1110.02 -44.7977C1113.8 -31.84 1115.96 -18.8822 1117.04 -5.92453Z" fill="white" fill-opacity="0.25"/>
<path d="M829.393 63.1833C829.393 63.1833 809.965 67.5025 792.156 75.6011C781.902 58.3242 768.41 44.2866 768.41 44.2866C768.41 44.2866 787.838 39.9674 805.648 31.8688C815.901 49.1458 829.393 63.1833 829.393 63.1833Z" fill="white" fill-opacity="0.25"/>
<path d="M805.109 64.2631C805.648 65.8828 806.728 66.9626 807.267 68.5824C816.442 65.3429 824.537 63.1833 827.775 62.6434C824.537 58.8641 813.743 46.9862 805.109 32.4087C799.172 35.1082 793.776 37.2679 788.379 38.8876C794.855 46.9862 800.791 55.6246 805.109 64.2631Z" fill="white" fill-opacity="0.25"/>
<path d="M1179.1 220.296C1179.1 220.296 1168.31 188.441 1150.5 159.286C1177.48 138.23 1199.61 112.855 1199.61 112.855C1199.61 112.855 1210.4 144.709 1228.21 173.864C1201.23 194.38 1179.1 220.296 1179.1 220.296Z" fill="white" fill-opacity="0.25"/>
<path d="M1172.63 179.803C1170.47 181.422 1167.77 183.042 1165.61 184.122C1172.63 199.239 1177.49 212.197 1179.64 217.596C1185.04 211.657 1203.93 190.601 1226.6 173.324C1221.2 164.145 1216.34 154.967 1212.56 146.329C1200.15 158.746 1187.2 170.084 1172.63 179.803Z" fill="white" fill-opacity="0.25"/>
<path d="M1287.04 2.71397C1287.04 2.71397 1319.42 -8.08414 1341.01 15.1318C1364.75 39.9674 1343.7 85.8593 1291.9 88.5588C1255.2 90.7184 1221.74 81.5401 1206.09 76.6809C1202.31 60.4838 1196.91 26.4698 1202.31 -10.2438C1209.86 -60.9948 1257.36 -77.7319 1280.02 -51.8164C1301.07 -28.0606 1287.04 2.71397 1287.04 2.71397Z" fill="white" fill-opacity="0.25"/>
<path d="M1202.85 28.6294C1233.61 23.2303 1264.91 21.6106 1296.21 22.6904C1312.94 23.2303 1330.21 25.39 1346.4 28.0895C1344.79 24.3102 1343.17 20.5308 1339.93 17.2914L1339.39 16.7515C1318.88 -4.84473 1288.12 4.87357 1287.58 4.87357L1282.18 6.49328L1284.34 1.63414C1284.34 1.09423 1297.29 -28.0606 1277.87 -50.7366L1277.33 -51.2765C1268.69 -60.9948 1255.2 -64.2342 1242.25 -59.915C1227.14 -55.0559 1209.33 -39.9385 1205.01 -9.70387C1202.85 3.25385 1202.31 16.2116 1202.85 28.6294Z" fill="white" fill-opacity="0.25"/>
<path d="M1182.88 64.803C1176.4 51.3054 1173.16 44.2866 1173.16 29.1693C1161.29 37.8078 1153.74 39.4275 1139.16 42.127C1116.5 46.9861 1116.5 68.5823 1128.91 75.6011C1136.47 79.9203 1144.02 76.6809 1148.34 74.5213C1145.1 78.8405 1139.7 86.9391 1135.93 89.6386L1146.72 95.0377C1146.72 90.1785 1149.96 81.0002 1151.58 75.6011C1152.12 80.4603 1153.74 88.5588 1162.37 91.7983C1175.32 98.2771 1192.59 85.8593 1182.88 64.803Z" fill="white" fill-opacity="0.25"/>
<path d="M1129.45 75.0612C1129.99 75.0612 1129.99 75.6011 1130.53 75.6011H1131.07C1145.1 65.3429 1160.21 57.2443 1176.4 51.8453C1173.7 45.3664 1172.62 39.4275 1172.62 30.789C1161.83 38.3477 1154.27 39.9674 1140.78 42.6669L1139.7 43.2068C1129.99 45.3664 1123.51 50.7655 1121.89 58.3242C1120.82 65.3429 1124.05 71.8218 1129.45 75.0612Z" fill="white" fill-opacity="0.25"/>
<path d="M972.409 -13.4832C974.568 -2.1452 975.647 3.79376 972.948 15.1318C983.742 10.8125 989.678 10.8125 1001.55 11.3524C1019.9 11.8923 1023.68 -4.30482 1015.58 -12.4034C1010.73 -17.2625 1004.25 -16.1827 1000.47 -15.1029C1003.71 -17.8024 1009.65 -22.6616 1012.88 -24.2813L1005.87 -30.2202C1004.79 -26.4409 1001.01 -19.9621 998.853 -16.7226C999.392 -20.502 999.392 -26.9808 993.996 -31.3001C984.282 -37.7789 968.631 -31.84 972.409 -13.4832Z" fill="white" fill-opacity="0.25"/>
<path d="M1014.5 -11.8635L1013.96 -12.4034C1013.96 -12.4034 1013.96 -12.4034 1013.42 -12.4034C1001.01 -7.54425 988.059 -3.76491 974.567 -2.6851C975.107 2.71395 975.107 7.57309 974.027 14.0519C983.741 10.2726 989.678 10.2726 1000.47 10.8125H1001.55C1009.65 10.8125 1015.04 8.113 1017.74 2.71395C1019.36 -2.6851 1018.28 -8.08415 1014.5 -11.8635Z" fill="white" fill-opacity="0.25"/>
<path d="M1012.88 52.3852C980.5 59.404 964.309 63.1833 932.469 56.1645C945.421 86.3992 944.881 103.136 944.342 136.07C943.802 187.361 990.214 197.08 1011.8 173.864C1025.29 159.286 1022.05 141.469 1018.82 131.751C1026.91 140.39 1040.94 156.587 1045.26 166.305L1061.99 145.789C1051.74 143.089 1033.39 132.291 1023.13 126.352C1033.39 127.972 1051.74 127.432 1063.07 111.235C1081.42 85.3194 1063.61 41.5871 1012.88 52.3852Z" fill="white" fill-opacity="0.25"/>
<path d="M1010.18 172.244C1010.72 171.704 1011.26 171.164 1011.8 170.624C1011.8 170.624 1012.34 170.084 1012.34 169.545C997.23 134.991 987.515 98.2771 982.658 59.9439C967.548 62.1035 954.595 62.1035 935.707 58.3242C947.04 85.3194 946.5 102.596 945.961 132.291V134.991C945.421 157.127 954.595 173.864 970.246 179.803C984.277 186.282 999.928 183.042 1010.18 172.244Z" fill="white" fill-opacity="0.25"/>
<path d="M1338.84 145.789C1341.54 145.249 1344.24 144.169 1346.94 142.549C1343.16 146.869 1341.54 152.807 1342.62 158.746C1344.24 169.545 1354.49 177.103 1365.83 175.483C1376.62 173.324 1383.64 163.066 1382.02 152.268C1380.94 146.329 1377.16 141.469 1372.84 138.23C1375.54 138.77 1378.24 139.31 1381.48 138.77C1392.27 136.61 1399.29 126.352 1397.67 115.554C1396.05 104.756 1385.8 97.1973 1374.46 98.817C1365.29 100.437 1358.81 107.995 1358.27 116.634C1358.27 109.075 1357.73 92.3381 1359.89 84.7795L1342.08 88.0189C1346.4 94.4978 1351.8 110.155 1353.95 117.714C1350.18 109.615 1341.54 105.296 1332.91 106.376C1322.11 108.535 1314.56 118.793 1316.72 129.592C1317.8 139.85 1328.05 147.408 1338.84 145.789Z" fill="white" fill-opacity="0.25"/>
<path d="M1379.86 99.3569C1374.46 113.394 1367.44 126.352 1358.81 138.77C1353.95 145.249 1349.1 151.728 1343.7 157.667C1343.7 158.207 1343.7 158.207 1343.7 158.746C1345.32 169.005 1355.03 176.023 1365.29 174.404C1375.54 172.244 1382.56 162.526 1380.94 152.268C1379.86 146.869 1376.62 142.009 1371.76 139.31L1372.84 137.69C1375.54 138.23 1378.24 138.77 1380.94 138.23C1391.19 136.07 1398.21 126.352 1396.59 116.094C1394.43 106.916 1387.95 100.437 1379.86 99.3569Z" fill="white" fill-opacity="0.25"/>
<path d="M1343.7 -27.5207C1344.78 -25.901 1346.4 -24.2813 1348.02 -23.2015C1344.24 -24.8212 1339.92 -24.2813 1336.15 -22.1217C1329.13 -18.3423 1326.43 -9.70386 1330.21 -2.6851C1333.99 4.33367 1342.62 6.49329 1349.64 2.71395C1353.42 0.554333 1356.11 -2.6851 1356.65 -7.00434C1356.65 -4.84472 1357.19 -3.22501 1358.27 -1.06538C1362.05 5.95338 1370.69 8.113 1377.7 4.33366C1384.72 0.554329 1387.42 -8.08415 1383.64 -15.1029C1380.4 -20.502 1373.92 -23.2015 1367.99 -22.1217C1372.84 -23.7414 1384.18 -28.0606 1389.57 -28.6005L1383.64 -39.9385C1380.4 -35.6193 1371.23 -28.0606 1366.91 -25.3611C1371.23 -29.6803 1372.31 -36.6991 1369.61 -42.0982C1365.83 -49.1169 1357.19 -51.2765 1350.18 -47.4972C1342.62 -43.178 1339.92 -34.5395 1343.7 -27.5207Z" fill="white" fill-opacity="0.25"/>
<path d="M1383.64 -10.7837C1373.38 -11.3236 1362.59 -12.9433 1352.34 -16.1827C1346.94 -17.8024 1341.54 -19.9621 1336.15 -22.1217C1336.15 -22.1217 1335.61 -22.1217 1335.61 -21.5818C1329.13 -17.8024 1326.43 -9.70386 1330.21 -3.225C1333.99 3.25385 1342.08 5.41347 1348.56 2.17404C1351.8 0.554329 1354.5 -3.22501 1355.58 -7.00434H1357.19C1357.19 -4.84472 1357.73 -3.22501 1358.81 -1.60529C1362.59 4.87356 1370.69 7.03318 1377.16 3.79375C1382.02 1.09423 1384.72 -4.84472 1383.64 -10.7837Z" fill="white" fill-opacity="0.25"/>
</g>
</svg>
