<svg width="360" height="287" viewBox="0 0 360 287" fill="none" xmlns="http://www.w3.org/2000/svg">
<mask id="mask0_1_951" style="mask-type:alpha" maskUnits="userSpaceOnUse" x="0" y="0" width="360" height="287">
<rect width="360" height="287" fill="#EAEBFD"/>
</mask>
<g mask="url(#mask0_1_951)">
<path d="M49.048 19.9909C49.048 19.9909 33.9371 50.2256 25.842 83.1598C-8.15743 78.8405 -41.6172 81.5401 -41.6172 81.5401C-41.6172 81.5401 -26.5063 51.3054 -18.4112 18.3712C15.5882 22.6904 49.048 19.9909 49.048 19.9909Z" fill="white" fill-opacity="0.25"/>
<path d="M25.3047 53.465C28.0031 54.0049 30.7015 54.5448 33.3998 55.0847C38.7966 39.4275 44.733 26.4698 46.8917 21.6106C38.7966 22.1505 10.7335 23.2304 -17.3295 19.9909C-20.0278 30.2491 -23.2659 40.5073 -26.5039 49.1458C-9.23435 48.6059 8.03519 50.2256 25.3047 53.465Z" fill="white" fill-opacity="0.25"/>
<path d="M300.307 185.874C300.307 185.874 309.295 176.989 320.255 181.585C331.934 185.925 332.083 204.516 315.368 213.324C303.429 219.616 290.926 222.056 285.15 222.903C281.429 218.153 274.449 207.676 270.32 194.966C265.114 176.965 277.876 163.894 289.812 168.952C299.566 173.574 300.307 185.874 300.307 185.874Z" fill="white" fill-opacity="0.25"/>
<path d="M276.372 207.393C285.898 201.153 295.681 195.632 306.208 191.061C312.19 188.518 317.941 186.464 323.949 185.128C322.717 183.947 321.741 183.485 320.278 182.792L319.791 182.561C309.806 178.427 301.049 186.824 301.049 186.824L299.868 188.057L299.586 186.131C299.586 186.131 299.333 174.062 289.348 169.928L288.86 169.697C284.471 167.617 279.67 168.927 275.638 172.393C271.376 176.348 267.677 184.155 271.036 194.708C272.088 198.791 274.115 203.336 276.372 207.393Z" fill="white" fill-opacity="0.25"/>
<path d="M175.869 -46.4174C170.472 -32.3798 168.313 -25.3611 157.52 -14.563C172.091 -12.4034 178.567 -8.08413 190.979 0.554352C210.408 13.5121 225.519 -2.14516 221.741 -16.1827C219.582 -24.8212 212.027 -28.0606 207.17 -29.1404C212.566 -30.2202 222.28 -31.3 227.138 -30.7601L223.36 -42.0981C220.122 -38.8587 211.487 -34.5395 206.63 -31.8399C209.868 -35.6193 214.185 -42.638 210.947 -50.7366C205.011 -64.7741 183.964 -68.0136 175.869 -46.4174Z" fill="white" fill-opacity="0.25"/>
<path d="M221.203 -16.1827C221.203 -16.7226 221.203 -16.7226 220.663 -17.2625V-17.8024C203.933 -20.5019 187.203 -25.3611 171.553 -32.9197C168.854 -26.4409 165.616 -21.5817 159.68 -15.1029C172.632 -12.9433 179.108 -8.62403 190.441 -1.06536L191.521 -0.525452C200.155 4.8736 208.25 5.4135 214.726 1.09426C220.123 -2.68508 222.822 -9.70383 221.203 -16.1827Z" fill="white" fill-opacity="0.25"/>
<path d="M267.072 146.329C273.548 136.61 276.786 131.751 286.5 125.272C275.707 120.953 271.929 116.094 263.834 107.995C251.422 94.4978 237.39 103.676 237.39 115.014C237.39 122.033 242.787 125.812 246.025 127.432C241.708 126.892 234.152 126.352 230.914 125.272L231.454 134.451C234.692 132.831 242.247 130.671 246.025 129.592C243.327 131.751 238.47 136.61 239.549 143.089C241.168 154.967 256.818 161.446 267.072 146.329Z" fill="white" fill-opacity="0.25"/>
<path d="M238.469 115.014C238.469 115.554 238.469 115.554 238.469 116.094C238.469 116.094 238.469 116.094 238.469 116.634C250.881 122.033 262.215 128.512 273.008 137.15C276.246 132.831 279.484 129.592 285.421 125.812C275.706 121.493 271.929 117.174 264.373 109.615L263.834 109.075C258.437 103.136 251.961 101.517 246.564 103.676C241.167 105.296 238.469 110.155 238.469 115.014Z" fill="white" fill-opacity="0.25"/>
<path d="M105.175 122.573C132.699 140.39 147.27 149.568 165.079 177.103C176.952 146.869 189.365 134.991 213.11 112.315C249.808 76.6809 223.904 36.728 192.063 37.8078C172.635 38.3477 161.841 53.465 157.524 62.6434C158.063 50.7655 159.683 29.1693 162.921 19.451L136.477 22.1505C141.873 31.3289 147.27 51.8453 149.968 63.7232C143.492 55.6246 130.54 42.6669 111.112 45.9064C80.3505 50.7655 62.0016 94.4978 105.175 122.573Z" fill="white" fill-opacity="0.25"/>
<path d="M192.064 39.9674C191.524 39.9674 190.445 39.9674 189.905 39.9674C189.366 39.9674 189.366 39.9674 188.826 39.9674C174.794 75.0612 155.906 107.995 132.16 138.23C144.033 147.408 153.747 156.587 164.001 172.244C175.334 145.249 187.747 133.371 208.794 112.315L210.953 110.155C227.143 94.4978 232 76.6809 225.524 61.0237C220.667 48.066 206.635 39.4275 192.064 39.9674Z" fill="white" fill-opacity="0.25"/>
<path d="M22.6016 185.742C23.6809 189.521 25.8396 192.76 28.538 195.46C22.0619 191.681 13.9668 190.601 6.41136 193.3C-7.62015 198.16 -15.1756 212.737 -10.8582 226.774C-6.00115 240.272 9.10972 247.831 23.1412 242.972C30.6967 240.272 36.6331 234.873 39.3314 227.854C38.7918 231.634 39.3314 235.413 40.4108 239.192C45.2678 252.69 60.3787 260.249 74.4102 255.389C88.4417 250.53 95.9971 235.953 91.6797 221.915C87.3624 210.577 76.5689 203.559 65.2358 204.098C74.9499 202.479 96.5368 198.159 106.791 199.779L99.2352 177.103C91.6797 184.122 72.2515 194.38 63.0771 198.699C72.2515 192.221 77.1086 179.803 73.3309 168.465C68.4738 154.967 53.3629 147.408 39.3314 152.268C25.8396 157.127 18.2842 172.244 22.6016 185.742Z" fill="white" fill-opacity="0.25"/>
<path d="M91.6809 229.474C72.2526 225.155 53.9038 218.676 36.0946 210.037C26.3804 205.178 17.206 199.779 8.57122 194.38C8.03155 194.38 7.49185 194.38 7.49185 194.92C-5.46031 199.239 -13.0157 213.817 -8.69835 226.774C-3.84129 239.732 10.7299 246.751 23.6821 242.432C30.6978 240.272 36.0946 234.873 38.7929 227.854L41.4913 228.394C40.9516 232.174 41.4913 235.413 42.5706 239.192C47.4277 252.15 61.4592 259.169 74.951 254.85C84.6651 250.53 91.6809 240.272 91.6809 229.474Z" fill="white" fill-opacity="0.25"/>
<path d="M305.393 63.1833C305.393 63.1833 285.965 67.5025 268.156 75.6011C257.902 58.3242 244.41 44.2866 244.41 44.2866C244.41 44.2866 263.838 39.9674 281.648 31.8688C291.901 49.1458 305.393 63.1833 305.393 63.1833Z" fill="white" fill-opacity="0.25"/>
<path d="M281.109 64.2631C281.648 65.8828 282.728 66.9626 283.267 68.5824C292.442 65.3429 300.537 63.1833 303.775 62.6434C300.537 58.8641 289.743 46.9862 281.109 32.4087C275.172 35.1082 269.775 37.2679 264.379 38.8876C270.855 46.9862 276.791 55.6246 281.109 64.2631Z" fill="white" fill-opacity="0.25"/>
</g>
</svg>
