<svg width="159" height="18" viewBox="0 0 159 18" fill="none" xmlns="http://www.w3.org/2000/svg">
  <path d="M39.1865 6C39.1865 4.89543 40.082 4 41.1865 4H57.2508C58.3553 4 59.2508 4.89543 59.2508 6V8.63109H39.1865V6Z" fill="#FD2A2A"/>
  <rect x="39.1865" y="8.63109" width="20.0642" height="4.35867" fill="white"/>
  <path d="M39.1865 12.9902H59.2508V15.6213C59.2508 16.7259 58.3553 17.6213 57.2508 17.6213H41.1865C40.082 17.6213 39.1865 16.7259 39.1865 15.6213V12.9902Z" fill="#1B8050"/>
  <path d="M149.94 9.65483H150.536C150.776 9.65483 150.974 9.62331 151.132 9.56026C151.29 9.49091 151.425 9.38373 151.539 9.23872L155.312 4.46288C155.47 4.26113 155.634 4.12243 155.804 4.04677C155.98 3.96481 156.201 3.92383 156.466 3.92383H158.66L154.054 9.60755C153.783 9.95431 153.503 10.2002 153.213 10.3452C153.421 10.4209 153.607 10.528 153.771 10.6667C153.941 10.7991 154.102 10.9757 154.253 11.1963L159 17.5988H156.759C156.456 17.5988 156.229 17.5578 156.078 17.4759C155.933 17.3876 155.81 17.2615 155.709 17.0976L151.841 12.0475C151.722 11.8773 151.583 11.7575 151.425 11.6881C151.268 11.6188 151.041 11.5841 150.744 11.5841H149.94V17.5988H147.396V3.92383H149.94V9.65483Z" fill="white"/>
  <path d="M145.161 10.7622C145.161 11.7646 144.994 12.6946 144.66 13.552C144.332 14.4032 143.866 15.1408 143.26 15.765C142.655 16.3892 141.927 16.8778 141.076 17.2308C140.225 17.5776 139.279 17.751 138.239 17.751C137.205 17.751 136.262 17.5776 135.411 17.2308C134.56 16.8778 133.829 16.3892 133.217 15.765C132.612 15.1408 132.142 14.4032 131.808 13.552C131.474 12.6946 131.307 11.7646 131.307 10.7622C131.307 9.75973 131.474 8.83293 131.808 7.98179C132.142 7.12435 132.612 6.38355 133.217 5.75938C133.829 5.13521 134.56 4.64974 135.411 4.30298C136.262 3.94992 137.205 3.77338 138.239 3.77338C138.932 3.77338 139.585 3.85535 140.196 4.01927C140.808 4.17689 141.369 4.40386 141.88 4.70018C142.39 4.9902 142.847 5.34642 143.251 5.76883C143.661 6.18495 144.008 6.6515 144.291 7.16848C144.575 7.68547 144.789 8.24659 144.934 8.85185C145.086 9.4571 145.161 10.0939 145.161 10.7622ZM142.561 10.7622C142.561 10.0119 142.46 9.34047 142.258 8.74782C142.056 8.14887 141.769 7.64134 141.397 7.22523C141.025 6.80911 140.571 6.49073 140.036 6.27006C139.506 6.04939 138.907 5.93906 138.239 5.93906C137.57 5.93906 136.968 6.04939 136.432 6.27006C135.903 6.49073 135.449 6.80911 135.071 7.22523C134.699 7.64134 134.412 8.14887 134.21 8.74782C134.008 9.34047 133.907 10.0119 133.907 10.7622C133.907 11.5124 134.008 12.1871 134.21 12.786C134.412 13.3786 134.699 13.883 135.071 14.2991C135.449 14.7089 135.903 15.0242 136.432 15.2449C136.968 15.4655 137.57 15.5758 138.239 15.5758C138.907 15.5758 139.506 15.4655 140.036 15.2449C140.571 15.0242 141.025 14.7089 141.397 14.2991C141.769 13.883 142.056 13.3786 142.258 12.786C142.46 12.1871 142.561 11.5124 142.561 10.7622ZM142.23 0L139.165 2.70473C139.039 2.81822 138.92 2.88757 138.806 2.91279C138.693 2.93801 138.548 2.95062 138.371 2.95062H136.678L138.655 0.387741C138.718 0.299475 138.781 0.230122 138.844 0.179684C138.907 0.122942 138.976 0.0819613 139.052 0.0567419C139.128 0.0315233 139.21 0.0157614 139.298 0.00945642C139.392 0.00315214 139.503 0 139.629 0H142.23Z" fill="white"/>
  <path d="M129.075 3.92383V17.5988H127.77C127.568 17.5988 127.398 17.5673 127.259 17.5042C127.127 17.4349 126.998 17.3214 126.872 17.1638L119.731 8.04713C119.769 8.46324 119.788 8.84783 119.788 9.20089V17.5988H117.547V3.92383H118.88C118.988 3.92383 119.079 3.93013 119.155 3.94274C119.237 3.94905 119.306 3.96796 119.363 3.99948C119.426 4.0247 119.486 4.06569 119.542 4.12243C119.599 4.17287 119.662 4.24222 119.731 4.33048L126.9 13.485C126.881 13.2643 126.865 13.0468 126.853 12.8324C126.84 12.6181 126.834 12.4195 126.834 12.2366V3.92383H129.075Z" fill="white"/>
  <path d="M114.485 17.5988H111.932V3.92383H114.485V17.5988Z" fill="white"/>
  <path d="M109.899 4.86008C109.899 5.1501 109.817 5.4149 109.653 5.65448L102.635 15.5655H109.738V17.5988H99.335V16.5963C99.335 16.4703 99.357 16.3505 99.4012 16.237C99.4453 16.1172 99.502 16.0069 99.5714 15.906L106.607 5.94765H99.7794V3.92383H109.899V4.86008Z" fill="white"/>
  <path d="M97.3812 6.41173C97.3055 6.54413 97.2236 6.64185 97.1353 6.7049C97.0533 6.76164 96.9493 6.79001 96.8232 6.79001C96.6908 6.79001 96.5458 6.74273 96.3882 6.64815C96.2369 6.54728 96.054 6.43695 95.8397 6.31716C95.6253 6.19737 95.3731 6.09018 95.0831 5.99561C94.7994 5.89474 94.4621 5.8443 94.0712 5.8443C93.7181 5.8443 93.4092 5.88843 93.1444 5.9767C92.8796 6.05866 92.6558 6.1753 92.473 6.32661C92.2964 6.47793 92.164 6.66076 92.0758 6.87512C91.9875 7.08318 91.9434 7.3133 91.9434 7.56549C91.9434 7.88703 92.0316 8.15499 92.2082 8.36935C92.391 8.58371 92.6306 8.76655 92.9269 8.91786C93.2232 9.06917 93.5605 9.20472 93.9388 9.32451C94.3171 9.4443 94.7048 9.57355 95.102 9.71226C95.4992 9.84466 95.887 10.0023 96.2653 10.1851C96.6435 10.3616 96.9808 10.5886 97.2772 10.866C97.5735 11.1371 97.8099 11.4713 97.9865 11.8685C98.1693 12.2657 98.2607 12.748 98.2607 13.3154C98.2607 13.9333 98.1535 14.5133 97.9392 15.0555C97.7311 15.5914 97.4222 16.0611 97.0124 16.4646C96.6089 16.8618 96.1139 17.1771 95.5276 17.4103C94.9413 17.6373 94.2698 17.7508 93.5132 17.7508C93.0782 17.7508 92.6495 17.7067 92.2271 17.6184C91.8047 17.5364 91.398 17.4166 91.0071 17.259C90.6225 17.1014 90.26 16.9123 89.9195 16.6916C89.5791 16.4709 89.2765 16.225 89.0117 15.9539L89.7588 14.734C89.8218 14.6457 89.9038 14.5732 90.0047 14.5165C90.1055 14.4534 90.2127 14.4219 90.3262 14.4219C90.4838 14.4219 90.654 14.4881 90.8369 14.6205C91.0197 14.7466 91.2372 14.8884 91.4894 15.0461C91.7416 15.2037 92.0348 15.3487 92.3689 15.4811C92.7094 15.6072 93.116 15.6702 93.5889 15.6702C94.3139 15.6702 94.8751 15.5 95.2723 15.1595C95.6695 14.8128 95.8681 14.3179 95.8681 13.6748C95.8681 13.3154 95.7766 13.0222 95.5938 12.7953C95.4173 12.5683 95.1808 12.3792 94.8845 12.2278C94.5882 12.0702 94.2509 11.9378 93.8726 11.8306C93.4943 11.7235 93.1097 11.6068 92.7188 11.4807C92.3279 11.3546 91.9434 11.2033 91.5651 11.0268C91.1868 10.8503 90.8495 10.6201 90.5532 10.3364C90.2568 10.0527 90.0173 9.69965 89.8344 9.27723C89.6579 8.84851 89.5696 8.32206 89.5696 7.69789C89.5696 7.19982 89.6674 6.71435 89.8628 6.2415C90.0646 5.76864 90.3546 5.34938 90.7329 4.9837C91.1111 4.61803 91.5777 4.32486 92.1325 4.10419C92.6873 3.88353 93.3241 3.7732 94.0428 3.7732C94.8498 3.7732 95.5938 3.89929 96.2747 4.15148C96.9556 4.40367 97.5357 4.75673 98.0148 5.21067L97.3812 6.41173Z" fill="white"/>
  <path d="M84.1917 12.4352L82.5272 7.88635C82.4453 7.6846 82.3602 7.44502 82.2719 7.16761C82.1836 6.89021 82.0954 6.59073 82.0071 6.26919C81.9251 6.59073 81.84 6.89336 81.7518 7.17707C81.6635 7.45448 81.5784 7.69721 81.4964 7.90527L79.8414 12.4352H84.1917ZM88.6838 17.5988H86.7167C86.4961 17.5988 86.3164 17.5452 86.1777 17.438C86.039 17.3245 85.935 17.1858 85.8656 17.0219L84.8442 14.2321H79.1794L78.1581 17.0219C78.1076 17.1669 78.0099 17.2993 77.8649 17.4191C77.7199 17.5389 77.5402 17.5988 77.3258 17.5988H75.3398L80.7209 3.92383H83.3122L88.6838 17.5988Z" fill="white"/>
  <path d="M66.544 9.65483H67.1398C67.3793 9.65483 67.5779 9.62331 67.7356 9.56026C67.8932 9.49091 68.0287 9.38373 68.1422 9.23872L71.9156 4.46288C72.0732 4.26113 72.2371 4.12243 72.4074 4.04677C72.5839 3.96481 72.8046 3.92383 73.0694 3.92383H75.2634L70.6578 9.60755C70.3867 9.95431 70.1061 10.2002 69.8161 10.3452C70.0242 10.4209 70.2102 10.528 70.3741 10.6667C70.5443 10.7991 70.7051 10.9757 70.8564 11.1963L75.6039 17.5988H73.3625C73.0599 17.5988 72.8329 17.5578 72.6816 17.4759C72.5366 17.3876 72.4137 17.2615 72.3128 17.0976L68.4448 12.0475C68.325 11.8773 68.1863 11.7575 68.0287 11.6881C67.8711 11.6188 67.6441 11.5841 67.3478 11.5841H66.544V17.5988H64V3.92383H66.544V9.65483Z" fill="white"/>
  <path d="M32.2151 14.3589C32.4292 14.3589 32.6152 14.3321 32.773 14.2786C32.9336 14.2251 33.0646 14.1518 33.166 14.0588C33.2702 13.963 33.3477 13.8503 33.3984 13.7207C33.4492 13.5911 33.4745 13.4488 33.4745 13.2939C33.4745 12.9839 33.3717 12.7458 33.166 12.5796C32.9631 12.4134 32.6518 12.3302 32.232 12.3302H31.5051V14.3589H32.2151ZM35.1397 17.5625H34.1127C33.9183 17.5625 33.7774 17.4864 33.6901 17.3342L32.4053 15.3774C32.3574 15.3042 32.3038 15.2521 32.2447 15.2211C32.1883 15.1901 32.1038 15.1746 31.9911 15.1746H31.5051V17.5625H30.3682V11.4512H32.232C32.6462 11.4512 33.0012 11.4948 33.297 11.5822C33.5957 11.6667 33.8394 11.7865 34.0282 11.9414C34.2198 12.0964 34.3606 12.2824 34.4508 12.4993C34.541 12.7134 34.586 12.9501 34.586 13.2093C34.586 13.415 34.5551 13.6094 34.4931 13.7926C34.4339 13.9757 34.3466 14.1419 34.231 14.2913C34.1183 14.4406 33.9775 14.5716 33.8084 14.6843C33.6422 14.797 33.452 14.8858 33.2378 14.9506C33.3111 14.9928 33.3787 15.0436 33.4407 15.1027C33.5027 15.1591 33.559 15.2267 33.6098 15.3056L35.1397 17.5625Z" fill="white"/>
  <path d="M27.7283 15.2549L26.9845 13.222C26.9478 13.1318 26.9098 13.0248 26.8704 12.9008C26.8309 12.7768 26.7915 12.643 26.752 12.4993C26.7154 12.643 26.6774 12.7782 26.6379 12.905C26.5985 13.029 26.5604 13.1375 26.5238 13.2305L25.7842 15.2549H27.7283ZM29.7358 17.5625H28.8567C28.7581 17.5625 28.6778 17.5385 28.6158 17.4906C28.5539 17.4399 28.5074 17.3779 28.4764 17.3046L28.0199 16.0579H25.4884L25.0319 17.3046C25.0094 17.3695 24.9657 17.4286 24.9009 17.4822C24.8361 17.5357 24.7558 17.5625 24.66 17.5625H23.7725L26.1772 11.4512H27.3353L29.7358 17.5625Z" fill="white"/>
  <path d="M22.2789 15.1957V17.5625H21.1462V15.1957L18.9189 11.4512H19.9206C20.0192 11.4512 20.0967 11.4751 20.153 11.523C20.2122 11.5709 20.2615 11.6315 20.301 11.7048L21.4167 13.7461C21.4815 13.8672 21.5379 13.9813 21.5858 14.0884C21.6365 14.1955 21.6816 14.3025 21.721 14.4096C21.7576 14.3025 21.7999 14.1955 21.8478 14.0884C21.8957 13.9813 21.9506 13.8672 22.0126 13.7461L23.1242 11.7048C23.1551 11.6428 23.2016 11.585 23.2636 11.5315C23.3256 11.4779 23.4045 11.4512 23.5003 11.4512H24.5062L22.2789 15.1957Z" fill="white"/>
  <path d="M18.7157 14.4976V16.97C18.4058 17.1983 18.0747 17.3659 17.7225 17.473C17.3731 17.5772 16.9984 17.6293 16.5983 17.6293C16.0996 17.6293 15.6474 17.5519 15.2417 17.3969C14.8388 17.2419 14.4936 17.0264 14.2062 16.7503C13.9216 16.4741 13.7019 16.1445 13.5469 15.7613C13.3919 15.3781 13.3145 14.9597 13.3145 14.5061C13.3145 14.0468 13.3891 13.6256 13.5384 13.2424C13.6878 12.8592 13.8991 12.5296 14.1724 12.2534C14.4485 11.9773 14.7824 11.7632 15.174 11.611C15.5657 11.4589 16.0052 11.3828 16.4927 11.3828C16.7406 11.3828 16.9716 11.4025 17.1858 11.442C17.4027 11.4814 17.6028 11.5364 17.7859 11.6068C17.9719 11.6744 18.1409 11.7575 18.2931 11.8562C18.4452 11.9548 18.5847 12.0633 18.7115 12.1816L18.3861 12.6972C18.3353 12.7789 18.2691 12.8296 18.1874 12.8494C18.1057 12.8663 18.017 12.8451 17.9212 12.786C17.8282 12.7324 17.7352 12.6789 17.6422 12.6254C17.5492 12.5718 17.445 12.5253 17.3295 12.4859C17.2168 12.4464 17.0886 12.414 16.9449 12.3887C16.804 12.3633 16.6406 12.3506 16.4546 12.3506C16.1531 12.3506 15.8798 12.4014 15.6347 12.5028C15.3924 12.6042 15.1853 12.7493 15.0134 12.9381C14.8416 13.1269 14.7091 13.3537 14.6162 13.6185C14.5232 13.8834 14.4767 14.1792 14.4767 14.5061C14.4767 14.8555 14.526 15.1682 14.6246 15.4443C14.726 15.7176 14.8669 15.9501 15.0473 16.1417C15.2304 16.3304 15.4502 16.4755 15.7066 16.577C15.963 16.6756 16.2489 16.7249 16.5645 16.7249C16.7899 16.7249 16.9914 16.701 17.1689 16.6531C17.3464 16.6052 17.5197 16.5404 17.6887 16.4586V15.3513H16.9195C16.8463 15.3513 16.7885 15.3316 16.7462 15.2922C16.7068 15.2499 16.6871 15.1992 16.6871 15.14V14.4976H18.7157Z" fill="white"/>
  <path d="M11.2195 15.2549L10.4757 13.222C10.4391 13.1318 10.401 13.0248 10.3616 12.9008C10.3221 12.7768 10.2827 12.643 10.2432 12.4993C10.2066 12.643 10.1686 12.7782 10.1291 12.905C10.0897 13.029 10.0516 13.1375 10.015 13.2305L9.27541 15.2549H11.2195ZM13.227 17.5625H12.348C12.2493 17.5625 12.169 17.5385 12.1071 17.4906C12.0451 17.4399 11.9986 17.3779 11.9676 17.3046L11.5111 16.0579H8.97956L8.52312 17.3046C8.50058 17.3695 8.45691 17.4286 8.3921 17.4822C8.3273 17.5357 8.247 17.5625 8.1512 17.5625H7.26367L9.66846 11.4512H10.8265L13.227 17.5625Z" fill="white"/>
  <path d="M6.6269 11.4512V17.5625H5.62525V13.6151C5.62525 13.4573 5.63371 13.2868 5.65061 13.1037L3.8037 16.5735C3.71636 16.7397 3.58252 16.8228 3.4022 16.8228H3.2416C3.06128 16.8228 2.92744 16.7397 2.8401 16.5735L0.972057 13.091C0.98051 13.184 0.987554 13.2755 0.993189 13.3657C0.998824 13.4559 1.00164 13.539 1.00164 13.6151V17.5625H0V11.4512H0.857946C0.908662 11.4512 0.952334 11.4526 0.988963 11.4554C1.02559 11.4582 1.05799 11.4653 1.08617 11.4765C1.11716 11.4878 1.14393 11.5061 1.16647 11.5315C1.19183 11.5568 1.21578 11.5906 1.23832 11.6329L3.06832 15.0267C3.11622 15.1168 3.15989 15.2098 3.19934 15.3056C3.2416 15.4014 3.28245 15.5 3.3219 15.6014C3.36135 15.4972 3.4022 15.3972 3.44446 15.3014C3.48673 15.2027 3.53181 15.1084 3.57971 15.0182L5.38435 11.6329C5.40689 11.5906 5.43084 11.5568 5.4562 11.5315C5.48156 11.5061 5.50833 11.4878 5.5365 11.4765C5.56749 11.4653 5.6013 11.4582 5.63793 11.4554C5.67456 11.4526 5.71823 11.4512 5.76895 11.4512H6.6269Z" fill="white"/>
  <path d="M32.9279 9.70207C33.4519 9.70207 33.8478 9.58936 34.1155 9.36396C34.3859 9.13574 34.5212 8.81594 34.5212 8.40458C34.5212 8.2158 34.4846 8.04675 34.4113 7.89742C34.3409 7.74527 34.238 7.61707 34.1028 7.51282C33.9675 7.40576 33.8013 7.32405 33.6041 7.2677C33.4068 7.21134 33.1828 7.18317 32.9321 7.18317H31.4275V9.70207H32.9279ZM31.4275 4.41069V6.86619H32.7208C32.9969 6.86619 33.2321 6.83097 33.4266 6.76054C33.6238 6.6901 33.7844 6.59712 33.9084 6.4816C34.0352 6.36608 34.1281 6.23506 34.1873 6.08855C34.2465 5.94204 34.2761 5.7913 34.2761 5.63633C34.2761 5.23342 34.1479 4.92912 33.8915 4.72344C33.6379 4.51494 33.2448 4.41069 32.7123 4.41069H31.4275ZM32.7123 4.06836C33.0532 4.06836 33.3491 4.10217 33.5998 4.16979C33.8506 4.23741 34.0577 4.33744 34.2211 4.46986C34.3845 4.59947 34.5057 4.75866 34.5846 4.94744C34.6635 5.13621 34.7029 5.35035 34.7029 5.58984C34.7029 5.74762 34.6747 5.89977 34.6184 6.04628C34.5649 6.1928 34.486 6.32804 34.3817 6.45201C34.2803 6.57599 34.1535 6.68446 34.0013 6.77744C33.852 6.8676 33.6801 6.93663 33.4857 6.98453C33.9563 7.05215 34.3169 7.20853 34.5677 7.45366C34.8213 7.69597 34.948 8.01576 34.948 8.41303C34.948 8.66661 34.903 8.89484 34.8128 9.0977C34.7226 9.30056 34.5916 9.47243 34.4197 9.61331C34.2479 9.75419 34.0366 9.86267 33.7858 9.93874C33.535 10.012 33.2505 10.0486 32.9321 10.0486H30.9922V4.06836H32.7123Z" fill="white"/>
  <path d="M27.587 9.70207C28.1111 9.70207 28.507 9.58936 28.7746 9.36396C29.0451 9.13574 29.1804 8.81594 29.1804 8.40458C29.1804 8.2158 29.1437 8.04675 29.0705 7.89742C29 7.74527 28.8972 7.61707 28.762 7.51282C28.6267 7.40576 28.4605 7.32405 28.2632 7.2677C28.066 7.21134 27.842 7.18317 27.5913 7.18317H26.0867V9.70207H27.587ZM26.0867 4.41069V6.86619H27.3799C27.6561 6.86619 27.8913 6.83097 28.0857 6.76054C28.283 6.6901 28.4436 6.59712 28.5675 6.4816C28.6943 6.36608 28.7873 6.23506 28.8465 6.08855C28.9056 5.94204 28.9352 5.7913 28.9352 5.63633C28.9352 5.23342 28.807 4.92912 28.5506 4.72344C28.2971 4.51494 27.904 4.41069 27.3715 4.41069H26.0867ZM27.3715 4.06836C27.7124 4.06836 28.0083 4.10217 28.259 4.16979C28.5098 4.23741 28.7169 4.33744 28.8803 4.46986C29.0437 4.59947 29.1649 4.75866 29.2438 4.94744C29.3226 5.13621 29.3621 5.35035 29.3621 5.58984C29.3621 5.74762 29.3339 5.89977 29.2776 6.04628C29.224 6.1928 29.1451 6.32804 29.0409 6.45201C28.9395 6.57599 28.8127 6.68446 28.6605 6.77744C28.5112 6.8676 28.3393 6.93663 28.1449 6.98453C28.6154 7.05215 28.9761 7.20853 29.2268 7.45366C29.4804 7.69597 29.6072 8.01576 29.6072 8.41303C29.6072 8.66661 29.5621 8.89484 29.472 9.0977C29.3818 9.30056 29.2508 9.47243 29.0789 9.61331C28.9071 9.75419 28.6957 9.86267 28.445 9.93874C28.1942 10.012 27.9096 10.0486 27.5913 10.0486H25.6514V4.06836H27.3715Z" fill="white"/>
  <path d="M24.2775 7.05564C24.2775 7.51772 24.2085 7.93754 24.0704 8.31509C23.9323 8.68982 23.7379 9.01103 23.4872 9.27869C23.2364 9.54354 22.9349 9.74923 22.5827 9.89574C22.2334 10.0394 21.8474 10.1113 21.4247 10.1113C21.0021 10.1113 20.6161 10.0394 20.2667 9.89574C19.9173 9.74923 19.6173 9.54354 19.3665 9.27869C19.1157 9.01103 18.9213 8.68982 18.7833 8.31509C18.6452 7.93754 18.5762 7.51772 18.5762 7.05564C18.5762 6.59638 18.6452 6.17938 18.7833 5.80465C18.9213 5.42709 19.1157 5.10589 19.3665 4.84104C19.6173 4.57337 19.9173 4.36628 20.2667 4.21977C20.6161 4.07326 21.0021 4 21.4247 4C21.8474 4 22.2334 4.07326 22.5827 4.21977C22.9349 4.36347 23.2364 4.56915 23.4872 4.83681C23.7379 5.10448 23.9323 5.42709 24.0704 5.80465C24.2085 6.17938 24.2775 6.59638 24.2775 7.05564ZM23.8295 7.05564C23.8295 6.63864 23.7717 6.26391 23.6562 5.93144C23.5407 5.59896 23.3773 5.31721 23.166 5.08617C22.9547 4.85513 22.7011 4.67903 22.4052 4.55788C22.1094 4.4339 21.7826 4.37192 21.4247 4.37192C21.0697 4.37192 20.7443 4.4339 20.4484 4.55788C20.1526 4.67903 19.8976 4.85513 19.6835 5.08617C19.4722 5.31721 19.3073 5.59896 19.189 5.93144C19.0735 6.26391 19.0157 6.63864 19.0157 7.05564C19.0157 7.47546 19.0735 7.8516 19.189 8.18407C19.3073 8.51373 19.4722 8.79407 19.6835 9.02511C19.8976 9.25615 20.1526 9.43225 20.4484 9.55341C20.7443 9.67456 21.0697 9.73514 21.4247 9.73514C21.7826 9.73514 22.1094 9.67456 22.4052 9.55341C22.7011 9.43225 22.9547 9.25615 23.166 9.02511C23.3773 8.79407 23.5407 8.51373 23.6562 8.18407C23.7717 7.8516 23.8295 7.47546 23.8295 7.05564Z" fill="white"/>
  <path d="M17.262 8.05379C17.262 8.38908 17.2211 8.68493 17.1394 8.94133C17.0577 9.19772 16.9394 9.41327 16.7844 9.58795C16.6295 9.76264 16.4421 9.89507 16.2223 9.98523C16.0025 10.0726 15.7546 10.1162 15.4785 10.1162C15.3517 10.1162 15.2235 10.1064 15.0939 10.0867C14.9643 10.0669 14.8304 10.0359 14.6924 9.99368C14.6952 9.95424 14.698 9.91479 14.7008 9.87535C14.7065 9.8359 14.7121 9.79645 14.7177 9.75701C14.7234 9.73165 14.7332 9.70911 14.7473 9.68939C14.7642 9.66966 14.7924 9.6598 14.8319 9.6598C14.8572 9.6598 14.8868 9.66544 14.9206 9.67671C14.9572 9.68516 14.9995 9.69502 15.0474 9.70629C15.0953 9.71756 15.1516 9.72883 15.2164 9.7401C15.2813 9.74856 15.3559 9.75278 15.4404 9.75278C15.6546 9.75278 15.8476 9.71897 16.0195 9.65135C16.1913 9.58373 16.3378 9.48089 16.459 9.34283C16.5801 9.20195 16.6717 9.02585 16.7337 8.81454C16.7985 8.6004 16.8309 8.34964 16.8309 8.06225V4.06836H17.262V8.05379Z" fill="white"/>
  <path d="M14.0249 7.33458V9.46043C13.7263 9.67174 13.4079 9.83375 13.0698 9.94646C12.7317 10.0592 12.3513 10.1155 11.9287 10.1155C11.4553 10.1155 11.0299 10.0437 10.6523 9.89997C10.2748 9.75345 9.95216 9.54777 9.68449 9.28292C9.41964 9.01525 9.21536 8.69264 9.07167 8.31509C8.93079 7.93754 8.86035 7.51772 8.86035 7.05564C8.86035 6.59356 8.92938 6.17515 9.06744 5.80042C9.20832 5.42287 9.40837 5.10167 9.66758 4.83681C9.92961 4.56915 10.2452 4.36347 10.6143 4.21977C10.9834 4.07326 11.399 4 11.8611 4C12.0893 4 12.2992 4.0155 12.4908 4.04649C12.6852 4.07748 12.8655 4.12397 13.0317 4.18596C13.198 4.24513 13.3529 4.31979 13.4966 4.40995C13.6403 4.4973 13.7784 4.59873 13.9108 4.71425L13.7925 4.90021C13.753 4.96783 13.6939 4.98333 13.615 4.9467C13.5727 4.92979 13.5121 4.89035 13.4332 4.82836C13.3544 4.76638 13.2459 4.70157 13.1078 4.63395C12.9698 4.56633 12.7979 4.50575 12.5922 4.45222C12.3893 4.39868 12.1414 4.37192 11.8484 4.37192C11.4595 4.37192 11.1074 4.4339 10.7918 4.55788C10.479 4.68185 10.2114 4.85936 9.98878 5.09039C9.76901 5.32143 9.59855 5.60319 9.4774 5.93566C9.35906 6.26813 9.29989 6.64146 9.29989 7.05564C9.29989 7.47546 9.35906 7.85301 9.4774 8.1883C9.59855 8.52359 9.77183 8.80816 9.99724 9.04202C10.2255 9.27588 10.5016 9.45479 10.8256 9.57876C11.1496 9.70274 11.5145 9.76472 11.9202 9.76472C12.0977 9.76472 12.2611 9.75345 12.4105 9.73091C12.5626 9.70837 12.7063 9.67738 12.8416 9.63793C12.9796 9.59567 13.112 9.54495 13.2388 9.48579C13.3684 9.4238 13.4995 9.35477 13.6319 9.27869V7.66846H12.4865C12.4556 7.66846 12.4288 7.6586 12.4062 7.63888C12.3865 7.61915 12.3767 7.59661 12.3767 7.57125V7.33458H14.0249Z" fill="white"/>
  <path d="M8.0709 9.68939L8.06245 10.0486H4.47852V4.06836H8.06245V4.4276H4.91383V6.84506H7.53416V7.19585H4.91383V9.68939H8.0709Z" fill="white"/>
  <path d="M3.47008 9.68093V10.0486H0.203125V4.06836H0.638438V9.68093H3.47008Z" fill="white"/>
</svg>
