<svg width="172" height="33" viewBox="0 0 172 33" fill="none" xmlns="http://www.w3.org/2000/svg">
  <g clip-path="url(#clip0_15_139)">
    <path d="M20.9813 12.9179C20.0335 11.8471 18.8666 10.9924 17.5594 10.4116C16.2523 9.83087 14.8355 9.53769 13.405 9.55191C12.1625 9.48013 10.9195 9.68337 9.7647 10.1471C8.60989 10.6108 7.57179 11.3236 6.72451 12.2346V0.0561523H0V32.7812H6.72451V30.0985C7.57179 31.0095 8.60989 31.7223 9.7647 32.186C10.9195 32.6497 12.1625 32.853 13.405 32.7812C14.8354 32.7951 16.2521 32.5018 17.5593 31.9211C18.8664 31.3404 20.0334 30.4858 20.9813 29.4152C23.0033 27.1421 24.1203 24.2065 24.1203 21.1652C24.1203 18.1238 23.0033 15.1883 20.9813 12.9152V12.9179ZM15.89 25.0839C14.8322 26.0193 13.4684 26.5356 12.0558 26.5356C10.6433 26.5356 9.27949 26.0193 8.2216 25.0839C7.25357 24.0079 6.71802 22.6121 6.71802 21.1652C6.71802 19.7183 7.25357 18.3225 8.2216 17.2464C9.27882 16.3097 10.6428 15.7924 12.0558 15.7924C13.4688 15.7924 14.8328 16.3097 15.89 17.2464C16.8581 18.3225 17.3936 19.7183 17.3936 21.1652C17.3936 22.6121 16.8581 24.0079 15.89 25.0839Z" fill="#F0F6FF"/>
    <path d="M34.4318 13.7418C34.8133 12.356 35.7226 11.1744 36.965 10.4501C38.2293 9.68998 39.6795 9.29451 41.1549 9.30744V16.9236C39.5735 16.6428 37.9438 16.9353 36.5591 17.7486C35.841 18.1933 35.2614 18.8294 34.8854 19.5854C34.5093 20.3413 34.3518 21.1871 34.4304 22.0276V32.7787H27.7031V9.75567H34.4318V13.7418Z" fill="#F0F6FF"/>
    <path d="M59.7464 9.75521V11.8603C58.907 10.9363 57.8714 10.2115 56.7156 9.73876C55.5598 9.26605 54.3128 9.05747 53.066 9.12821C51.6302 9.11605 50.2089 9.4162 48.9009 10.0079C47.5929 10.5996 46.4293 11.4687 45.4911 12.5547C43.4658 14.8852 42.3506 17.868 42.3506 20.9546C42.3506 24.0411 43.4658 27.024 45.4911 29.3545C46.4298 30.4399 47.5934 31.3086 48.9014 31.9002C50.2093 32.4919 51.6303 32.7924 53.066 32.781C54.3128 32.8517 55.5598 32.6431 56.7156 32.1704C57.8714 31.6977 58.907 30.9728 59.7464 30.0488V32.781H66.4709V9.75521H59.7464ZM58.2659 24.9421C57.2078 25.8922 55.8356 26.4178 54.4131 26.4178C52.9906 26.4178 51.6183 25.8922 50.5603 24.9421C49.605 23.8329 49.0797 22.418 49.0797 20.9546C49.0797 19.4912 49.605 18.0763 50.5603 16.9671C51.6179 16.0161 52.9903 15.4899 54.4131 15.4899C55.8358 15.4899 57.2082 16.0161 58.2659 16.9671C59.2211 18.0763 59.7464 19.4912 59.7464 20.9546C59.7464 22.418 59.2211 23.8329 58.2659 24.9421Z" fill="#F0F6FF"/>
    <path d="M77.4221 7.18972C76.7642 7.83855 75.9017 8.23966 74.9813 8.32486C74.0609 8.41007 73.1394 8.17411 72.3734 7.65709C71.6074 7.14006 71.0442 6.37389 70.7796 5.48884C70.5151 4.6038 70.5654 3.65452 70.9221 2.80237C71.2788 1.95023 71.9199 1.24784 72.7362 0.814606C73.5526 0.381373 74.4939 0.244025 75.4002 0.425957C76.3064 0.60789 77.1217 1.09786 77.7073 1.81254C78.2929 2.52722 78.6127 3.42254 78.6124 4.34623C78.6194 4.87637 78.5173 5.4023 78.3126 5.89142C78.1079 6.38055 77.8048 6.82243 77.4221 7.18972Z" fill="#F0F6FF"/>
    <path d="M77.9374 9.75537H71.2129V32.7825H77.9374V9.75537Z" fill="#F0F6FF"/>
    <path d="M95.85 9.12831C96.9643 9.10012 98.0723 9.3047 99.103 9.72899C100.134 10.1533 101.064 10.7879 101.836 11.5923C102.667 12.5118 103.307 13.5873 103.719 14.7562C104.131 15.9251 104.306 17.1642 104.234 18.4013V32.7811H97.5094V19.3858C97.5458 18.8329 97.4667 18.2784 97.2772 17.7577C97.0877 17.2369 96.7919 16.7612 96.4086 16.3608C96.0346 16.0086 95.5945 15.7341 95.1136 15.5531C94.6327 15.372 94.1206 15.2881 93.6071 15.3062C93.0454 15.2775 92.4839 15.3665 91.9586 15.5672C91.4333 15.768 90.9557 16.0763 90.5565 16.4722C89.7463 17.4317 89.3442 18.67 89.4364 19.9221V32.7783H82.7119V9.7553H89.4364V11.8604C90.2007 10.916 91.1849 10.1731 92.303 9.69685C93.4211 9.22056 94.6389 9.02536 95.85 9.12831Z" fill="#F0F6FF"/>
    <path d="M115.343 0.222849L108.616 0.263184L108.813 33.0006L115.54 32.9602L115.343 0.222849Z" fill="#F0F6FF"/>
    <path d="M136.413 9.81365L136.425 11.9202C135.58 11.0009 134.541 10.2819 133.382 9.81558C132.224 9.34931 130.976 9.14761 129.729 9.22518C128.293 9.22179 126.874 9.53037 125.569 10.1296C124.264 10.7289 123.105 11.6045 122.172 12.6957C120.161 15.0378 119.063 18.0268 119.08 21.1133C119.098 24.1997 120.229 27.1761 122.267 29.4954C123.213 30.576 124.382 31.4383 125.693 32.0226C127.005 32.6069 128.428 32.8992 129.864 32.8793C131.112 32.943 132.358 32.7272 133.511 32.2478C134.664 31.7685 135.695 31.0376 136.53 30.1087L136.545 32.8408L143.269 32.8023L143.132 9.77656L136.413 9.81365ZM135.02 25.0088C133.967 25.9647 132.598 26.498 131.176 26.5061C129.753 26.5143 128.378 25.9966 127.315 25.0528C126.353 23.9489 125.82 22.537 125.812 21.0737C125.803 19.6104 126.321 18.1926 127.269 17.0778C128.322 16.1213 129.691 15.5876 131.114 15.5795C132.536 15.5714 133.911 16.0894 134.975 17.0338C135.936 18.1377 136.469 19.5496 136.478 21.0129C136.486 22.4762 135.969 23.894 135.02 25.0088Z" fill="#F0F6FF"/>
    <path d="M168.813 12.7875C167.86 11.7219 166.688 10.8737 165.377 10.3C164.067 9.72642 162.648 9.44085 161.218 9.46273C159.975 9.39803 158.733 9.60852 157.58 10.0792C156.428 10.5498 155.394 11.269 154.553 12.1852L154.482 0L147.758 0.0371361L147.948 32.7745L154.672 32.7374L154.657 30.0534C155.509 30.9599 156.551 31.6672 157.709 32.1248C158.866 32.5823 160.11 32.7788 161.353 32.7003C162.783 32.7063 164.198 32.4051 165.502 31.817C166.806 31.2289 167.968 30.3677 168.91 29.2916C170.918 27.0067 172.018 24.0646 172 21.0233C171.982 17.9821 170.848 15.0531 168.813 12.7916V12.7875ZM163.796 24.981C162.745 25.9233 161.384 26.4479 159.971 26.4558C158.558 26.4636 157.192 25.9542 156.129 25.0236C155.155 23.9533 154.611 22.5606 154.603 21.1136C154.594 19.6665 155.122 18.2676 156.084 17.1861C157.136 16.2438 158.497 15.7192 159.909 15.7114C161.322 15.7035 162.689 16.213 163.751 17.1435C164.726 18.2138 165.269 19.6065 165.278 21.0536C165.286 22.5006 164.759 23.8995 163.796 24.981Z" fill="#F0F6FF"/>
  </g>
  <defs>
    <clipPath id="clip0_15_139">
      <rect width="172" height="33" fill="white"/>
    </clipPath>
  </defs>
</svg>
